HIERARCHY
ROOT Hips
{
  OFFSET -33.9132 29.2015 117.021
  CHANNELS 6 Xposition Yposition Zposition Zrotation Xrotation Yrotation
  JOINT LeftUpLeg
  {
    OFFSET 8.64259 1.95398 -2.38835
    CHANNELS 3 Zrotation Xrotation Yrotation
    JOINT LeftLeg
    {
      OFFSET 43.7702 0 0
      CHANNELS 3 Zrotation Xrotation Yrotation
      JOINT LeftFoot
      {
        OFFSET 40.6238 0 0
        CHANNELS 3 Zrotation Xrotation Yrotation
        JOINT LeftToeBase
        {
          OFFSET 12.7242 0 0
          CHANNELS 3 Zrotation Xrotation Yrotation
          End Site
          {
            OFFSET 0 0 0
          }
        }
      }
    }
  }
  JOINT RightUpLeg
  {
    OFFSET -8.2249 1.95398 -2.59336
    CHANNELS 3 Zrotation Xrotation Yrotation
    JOINT RightLeg
    {
      OFFSET 43.5653 0 0
      CHANNELS 3 Zrotation Xrotation Yrotation
      JOINT RightFoot
      {
        OFFSET 40.6238 0 0
        CHANNELS 3 Zrotation Xrotation Yrotation
        JOINT RightToeBase
        {
          OFFSET 12.7242 0 0
          CHANNELS 3 Zrotation Xrotation Yrotation
          End Site
          {
            OFFSET 0 0 0
          }
        }
      }
    }
  }
  JOINT Spine
  {
    OFFSET 0.165834 0.87714 6.61349
    CHANNELS 3 Zrotation Xrotation Yrotation
    JOINT Spine1
    {
      OFFSET 7.38963 1.71661e-005 0
      CHANNELS 3 Zrotation Xrotation Yrotation
      JOINT Spine2
      {
        OFFSET 11.9445 1.14441e-005 0
        CHANNELS 3 Zrotation Xrotation Yrotation
        JOINT Spine3
        {
          OFFSET 14.7254 4.19617e-005 0
          CHANNELS 3 Zrotation Xrotation Yrotation
          JOINT Spine4
          {
            OFFSET 10.9679 0 0
            CHANNELS 3 Zrotation Xrotation Yrotation
            JOINT RightShoulder
            {
              OFFSET 2.46616 -1.6653 3.69651
              CHANNELS 3 Zrotation Xrotation Yrotation
              JOINT RightArm
              {
                OFFSET 13.0012 0 0
                CHANNELS 3 Zrotation Xrotation Yrotation
                JOINT RightForeArm
                {
                  OFFSET 28.7848 1.62311e-005 0
                  CHANNELS 3 Zrotation Xrotation Yrotation
                  JOINT RightHand
                  {
                    OFFSET 26.5688 1.62095e-005 0
                    CHANNELS 3 Zrotation Xrotation Yrotation
                    End Site
                    {
                      OFFSET 0 0 0
                    }
                  }
                }
              }
            }
            JOINT LeftShoulder
            {
              OFFSET 2.38034 -1.29275 -3.7523
              CHANNELS 3 Zrotation Xrotation Yrotation
              JOINT LeftArm
              {
                OFFSET 16.3182 6.07031e-005 0
                CHANNELS 3 Zrotation Xrotation Yrotation
                JOINT LeftForeArm
                {
                  OFFSET 27.0901 0 0
                  CHANNELS 3 Zrotation Xrotation Yrotation
                  JOINT LeftHand
                  {
                    OFFSET 24.5451 1.51738e-005 0
                    CHANNELS 3 Zrotation Xrotation Yrotation
                    End Site
                    {
                      OFFSET 0 0 0
                    }
                  }
                }
              }
            }
            JOINT Neck
            {
              OFFSET 5.0226 -0.0266342 0
              CHANNELS 3 Zrotation Xrotation Yrotation
              JOINT Head
              {
                OFFSET 6.69364 2.86102e-005 0
                CHANNELS 3 Zrotation Xrotation Yrotation
                End Site
                {
                  OFFSET 0 0 0
                }
              }
            }
          }
        }
      }
    }
  }
}
MOTION
Frames:	6
Frame Time:	0.0416667
40.6616 91.3688 -198.541 -165.104 -86.8455 -159.777 -165.771 5.20205 99.4932 -84.1927 4.87244 2.62458 59.1306 -0.300662 5.26326 28.038 2.26114 -6.25456 176.701 34.1998 101.983 -52.5576 -18.3366 0.776479 68.8355 -7.07226 -6.97119 17.521 2.79345 6.8787 -1.90669 7.96098 -91.4464 10.9022 -4.46482 -2.45661 -0.76298 -4.56858 -2.25748 -23.3214 -3.52046 -3.6852 -3.30871 -3.52047 -3.68521 95.2115 -26.2588 -97.198 37.4048 11.4789 3.42501 -8.16388 -66.0903 -7.68816 -58.6495 30.4273 -57.3649 -90.557 -48.1982 77.4856 -7.32993 21.6461 -29.514 68.529 48.1636 -74.3276 56.5403 -9.11527 -13.2781 17.4539 13.8595 4.16549 -13.0142 12.1521 1.45784 
40.4354 90.8185 -191.841 -177.361 -85.7944 -168.209 -168.605 15.7783 102.323 -93.0045 6.11876 4.04412 62.6801 2.46029 8.35754 23.6955 3.22211 -12.2256 175.276 29.2121 105.667 -55.0898 -17.2943 2.03222 73.251 -10.9858 -7.47576 18.7466 1.81566 8.27529 -1.49445 8.25245 -91.8565 10.3022 -3.82612 -3.35646 -1.36704 -3.97006 -3.18483 -23.8921 -2.64154 -4.35018 -3.87945 -2.64154 -4.35019 94.5659 -28.7123 -97.9289 40.4327 5.40588 33.8894 -35.4792 -19.2959 -64.8436 -31.9445 6.43411 -31.6803 -91.3937 -51.1745 76.9253 -13.2224 16.3686 -18.1531 78.3551 51.9982 -81.1872 54.3743 -11.7612 -18.9946 18.7388 12.8256 4.21211 -11.9905 11.0354 1.86822 
40.4078 90.6291 -184.92 170.921 -85.2527 -179.854 -173.134 24.5357 101.157 -96.0553 7.05526 4.54797 65.7045 4.90595 9.02491 20.332 1.86075 -11.6342 174.762 23.9745 105.533 -56.8334 -17.2549 2.3156 77.8267 -15.0084 -8.45577 19.3281 1.3785 8.90614 -1.20528 8.33145 -91.9181 10.1475 -3.27606 -3.53172 -1.52368 -3.42824 -3.38421 -24.036 -2.06433 -4.35188 -4.02338 -2.06433 -4.35187 93.7591 -28.7408 -99.584 39.1525 3.23778 21.8611 -31.9545 -18.0833 -63.1498 -36.0618 8.68936 -31.9859 -90.8683 -51.4957 77.7688 -18.7414 14.001 -5.4489 74.7828 49.3339 -77.9297 56.9707 -11.573 -17.4462 17.7202 11.424 4.9034 -9.93625 9.55734 1.77541 
40.517 90.56 -177.883 170.77 -85.5516 177.983 -175.913 32.1542 98.1823 -93.7782 6.69935 4.49769 68.5983 6.95381 9.41771 20.9678 1.79961 -11.0525 174.77 19.0247 103.275 -57.777 -16.7497 1.69681 82.6195 -18.7026 -7.90921 20.8359 1.19996 7.67265 -0.756884 8.233 -91.6954 10.3652 -2.28392 -3.1694 -1.30735 -2.42114 -3.06592 -23.8176 -1.22656 -3.70861 -3.80497 -1.22656 -3.7086 93.2788 -28.4111 -100.671 36.5201 2.53191 17.4849 -31.5043 -13.4222 -69.3919 -36.5135 8.45324 -30.8909 -89.8092 -51.2682 79.278 -21.7733 14.4131 6.48247 72.0901 45.3578 -75.5437 59.826 -12.1278 -17.186 16.4379 9.21998 3.48381 -9.11369 7.80722 3.2315 
40.7315 91.192 -170.37 -171.58 -85.2896 -166.639 -176.666 36.4672 95.3837 -85.8439 3.50526 4.18651 71.7413 8.7531 8.39964 21.1202 0.774956 -8.79349 174.925 12.1514 100.209 -55.7106 -19.0886 0.777516 84.2909 -20.2619 -8.14237 21.9521 0.520411 8.4709 0.0365265 8.10272 -91.3006 10.6555 -0.525892 -2.53769 -1.01776 -0.637028 -2.51211 -23.5331 0.260835 -2.57842 -3.52044 0.26083 -2.57842 93.2656 -26.8712 -101.174 34.5375 3.0194 16.8504 -34.298 -11.0322 -75.1774 -39.8934 9.72424 -31.9804 -88.3074 -49.3506 81.1406 -21.7457 16.9719 16.7898 68.9764 40.0348 -72.6341 60.8471 -13.7929 -19.6007 13.938 6.4984 -0.0377984 -7.66036 6.12235 5.10405 
40.951 92.3995 -162.706 -152.833 -83.6278 -150.167 -176.764 37.6525 93.6237 -73.8486 0.77712 3.47348 71.4686 8.44794 7.83473 22.4393 1.33286 -8.9434 174.547 4.46441 97.2327 -53.346 -22.2095 -0.46688 82.0837 -18.9854 -9.66863 26.3949 -1.44318 9.60898 0.885523 8.05782 -90.9398 10.7651 1.32995 -1.99122 -0.906826 1.24104 -2.04781 -23.4396 1.86683 -1.49958 -3.4269 1.86683 -1.49959 93.0791 -23.4854 -102.746 32.4611 4.56828 22.0354 -32.2254 -5.58701 -82.5993 -37.2269 10.1022 -35.0815 -86.8939 -48.5986 83.1556 -19.1079 21.1862 24.3966 66.4049 36.1767 -70.6675 61.6102 -14.443 -20.3982 11.7143 4.53009 -1.59271 -6.88199 4.64127 4.71581 
